<?xml version="1.0" encoding="UTF-8" standalone="no"?>
<svg
   version="1.0"
   width="499.00012pt"
   height="137.00537pt"
   viewBox="0 0 499.00012 137.00537"
   preserveAspectRatio="xMidYMid"
   id="svg22"
   sodipodi:docname="logo.svg"
   inkscape:version="1.2.1 (9c6d41e410, 2022-07-14, custom)"
   xmlns:inkscape="http://www.inkscape.org/namespaces/inkscape"
   xmlns:sodipodi="http://sodipodi.sourceforge.net/DTD/sodipodi-0.dtd"
   xmlns="http://www.w3.org/2000/svg"
   xmlns:svg="http://www.w3.org/2000/svg">
  <defs
     id="defs26" />
  <sodipodi:namedview
     id="namedview24"
     pagecolor="#ffffff"
     bordercolor="#999999"
     borderopacity="1"
     inkscape:showpageshadow="0"
     inkscape:pageopacity="0"
     inkscape:pagecheckerboard="0"
     inkscape:deskcolor="#d1d1d1"
     inkscape:document-units="pt"
     showgrid="false"
     inkscape:zoom="0.354"
     inkscape:cx="194.91525"
     inkscape:cy="79.096045"
     inkscape:window-width="1920"
     inkscape:window-height="1016"
     inkscape:window-x="0"
     inkscape:window-y="0"
     inkscape:window-maximized="1"
     inkscape:current-layer="svg22" />
  <g
     transform="matrix(0.1,0,0,-0.1,0.37319377,323.21277)"
     fill="#000000"
     stroke="none"
     id="g20">
    <path
       d="M 105,3161 C 63,3135 34,3101 15,3058 2,3026 0,2948 0,2503 c 0,-326 4,-532 10,-555 14,-48 53,-94 101,-118 38,-20 75,-20 2384,-20 2309,0 2346,0 2384,20 48,24 87,70 101,118 6,23 10,229 10,555 0,565 1,559 -58,620 -58,61 133,57 -2439,57 -2283,0 -2359,-1 -2388,-19 z m 4741,-61 c 76,-37 74,-20 74,-608 v -519 l -23,-34 c -12,-18 -34,-39 -47,-46 -37,-19 -4673,-19 -4710,0 -13,7 -35,28 -47,46 l -23,34 v 519 c 0,589 -2,575 74,609 40,18 124,19 2350,19 2306,0 2310,0 2352,-20 z"
       id="path2" />
    <path
       d="m 282,3040 c -44,-18 -89,-60 -115,-109 l -27,-49 v -382 -382 l 27,-49 c 31,-58 78,-96 141,-115 70,-21 1947,-20 2018,1 64,19 113,60 144,121 25,49 25,49 28,392 2,229 -1,361 -8,398 -14,68 -60,130 -119,161 l -44,23 -1011,-1 c -592,0 -1021,-4 -1034,-9 z m 515,-345 c 21,-9 46,-23 57,-33 47,-42 70,-153 45,-219 -42,-113 -198,-155 -302,-81 -63,45 -91,173 -54,244 19,36 64,80 97,93 38,15 116,13 157,-4 z m 449,-10 c 38,-25 57,-62 56,-112 -1,-77 -64,-123 -169,-123 h -43 v -60 c 0,-57 -1,-60 -25,-60 h -25 v 191 192 l 91,-6 c 57,-4 100,-12 115,-22 z m 404,0 c 0,-25 -1,-25 -90,-25 h -90 v -60 -60 h 85 c 78,0 85,-2 85,-20 0,-18 -7,-20 -85,-20 h -85 v -65 -65 h 95 c 88,0 95,-1 95,-20 0,-19 -7,-20 -120,-20 h -120 v 183 c 0,101 3,187 7,190 3,4 55,7 115,7 h 108 z m 280,-122 105,-148 3,148 c 2,139 4,147 22,147 19,0 20,-8 20,-191 v -190 l -22,3 c -16,2 -52,45 -123,145 l -100,142 -3,-145 -3,-144 h -24 -25 v 183 c 0,101 3,187 7,190 21,21 47,-5 143,-140 z"
       id="path4" />
    <path
       d="m 637,2642 c -15,-9 -37,-36 -48,-60 -64,-132 69,-259 200,-192 92,46 96,197 8,250 -41,25 -121,26 -160,2 z"
       id="path6" />
    <path
       d="m 1090,2581 v -81 h 60 c 52,0 65,4 87,26 21,21 24,32 20,62 -9,53 -28,65 -102,70 l -65,4 z"
       id="path8" />
    <path
       d="m 2987,2693 c -4,-3 -7,-89 -7,-190 v -183 h 55 55 v 190 190 h -48 c -27,0 -52,-3 -55,-7 z"
       id="path10" />
    <path
       d="m 3170,2510 v -190 h 55 54 l 3,90 3,91 68,-91 67,-90 h 45 45 l -2,188 -3,187 h -50 -50 l -3,-94 -3,-93 -66,88 c -37,49 -71,92 -77,96 -6,4 -28,8 -48,8 h -38 z"
       id="path12" />
    <path
       d="m 3567,2694 c -4,-4 -7,-27 -7,-50 v -43 l 58,-3 57,-3 3,-137 3,-138 h 49 49 l 3,138 3,137 58,3 58,3 -3,47 -3,47 -161,3 c -88,1 -163,-1 -167,-4 z"
       id="path14" />
    <path
       d="m 3957,2694 c -4,-4 -7,-90 -7,-191 v -183 h 136 135 l -3,43 -3,42 -77,3 -78,3 v 29 30 h 65 65 v 40 40 h -65 -65 v 30 30 h 76 75 l -3,43 -3,42 -121,3 c -66,1 -123,-1 -127,-4 z"
       id="path16" />
    <path
       d="m 4280,2511 v -191 h 130 130 v 50 50 h -75 -74 l -3,138 -3,137 -52,3 -53,3 z"
       id="path18" />
  </g>
</svg>
